# xmcd
#
# Track frame offsets: 
#        150
#        26935
#        50486
#        67923
#        88257
#        109110
#        136463
#        158787
#        175125
#        200464
#        220837
#        241420
#        265584
#        286170
#        303475
#        319117
#
# Disc length: 4597 seconds
#
# Revision: 1
# Processed by: cddbd v1.5.1PL0 Copyright (c) Steve Scherf et al.
# Submitted via: ExactAudioCopy v0.95a5
#
DISCID=e611f310
DTITLE=Various Artist - Operation Nordcore Ii
DYEAR=2002
DGENRE=Hardcore
TTITLE0=Nordcore G.M.B.H. - Deadman
TTITLE1=Nordcore G.M.B.H. - Hölle Part I
TTITLE2=Nordcore G.M.B.H. - Hölle Part II
TTITLE3=Nordcore G.M.B.H. - No More Happy Hardcore
TTITLE4=Nordcore G.M.B.H. - Stairway To Hell
TTITLE5=Nordcore G.M.B.H. - Now
TTITLE6=Nordcore G.M.B.H. - Future
TTITLE7=Nordcore G.M.B.H. - Redlight District
TTITLE8=Dj Stahlin - Ground Zero
TTITLE9=Nordcore G.M.B.H. - The Stricher(Nordcore Gmbh Rmx)
TTITLE10=Nordcore G.M.B.H. - The Stricher(Drokz and Tails Rmx)
TTITLE11=Nordcore G.M.B.H. - The Stricher(Miro Rmx)
TTITLE12=Nordcore G.M.B.H. - Nordcore Attack(Rapid S Rmx)
TTITLE13=The Horrorist - Voice Of The Butcher
TTITLE14=Xenomorph - Schmerz
TTITLE15=Micropoint - Barbarians
EXTD=
EXTT0=
EXTT1=
EXTT2=
EXTT3=
EXTT4=
EXTT5=
EXTT6=
EXTT7=
EXTT8=
EXTT9=
EXTT10=
EXTT11=
EXTT12=
EXTT13=
EXTT14=
EXTT15=
PLAYORDER=
